<svg xml:space="preserve" style="enable-background:new 0 0 249.9 50.5;" viewBox="0 0 249.9 50.5" y="0px" x="0px" xmlns:xlink="http://www.w3.org/1999/xlink" xmlns="http://www.w3.org/2000/svg" id="Camada_1" version="1.1">
<style type="text/css">
	.st0{fill:#FFFFFF;}
</style>
<g>
	<g>
		<path d="M0.8,0.5h12.8c3.9,0,6.7,1.3,8.3,3.8c1.7,2.5,2.5,6.2,2.5,11c0,4.8-0.7,8.5-2.2,10.9
			c-1.5,2.5-4.1,3.7-7.9,3.7h-4v19.2H0.8V0.5z M10.9,21.1c1.2,0,2-0.2,2.6-0.7c0.5-0.4,0.9-1.1,1.1-1.9c0.2-0.8,0.3-2,0.3-3.5
			c0-2-0.2-3.5-0.7-4.4c-0.5-0.9-1.4-1.4-2.7-1.4h-1.1v11.8H10.9z" class="st0"></path>
		<path d="M28.1,46.4c-1.6-2.1-2.5-5.1-2.5-9.3V22.5c0-3.4,1-5.9,2.9-7.7c1.9-1.8,4.6-2.6,8.1-2.6
			c7,0,10.6,3.4,10.6,10.3v2.7c0,2.7,0,4.8-0.1,6.5H34.4v7.1c0,1.3,0.1,2.3,0.4,3c0.3,0.7,0.8,1.1,1.7,1.1c0.7,0,1.1-0.2,1.4-0.6
			c0.3-0.4,0.5-0.9,0.5-1.4c0-0.5,0.1-1.3,0.1-2.3V35h8.7v2.1c0,4.3-0.8,7.4-2.5,9.4c-1.7,2-4.5,3-8.5,3
			C32.5,49.5,29.8,48.5,28.1,46.4z M30.8,10.8V5.3L42.4,0v8.5L30.8,10.8z M38.5,27.3v-4.7c0-2.6-0.6-4-1.9-4c-1.5,0-2.2,1.3-2.2,4
			v4.7H38.5z" class="st0"></path>
	</g>
	<g>
		<path d="M52.5,49.6V2h18.4C83.8,2,93,10.8,93,25.3c0,14.5-8.3,24.3-20.6,24.3H52.5z M70.4,41.5
			c8.7,0,12.4-5.5,12.4-16.2s-3.7-15.1-13.3-15.1h-7.4v31.3H70.4z" class="st0"></path>
		<path d="M96.5,10.1V1.4h9.3v8.7H96.5z M96.5,49.6V14.3h9.3v35.3H96.5z" class="st0"></path>
		<path d="M110,49.6V14.3h8.8v4.2c3.1-4.7,6.7-5.2,10.5-5.2h1.2v9.5c-0.9-0.1-1.7-0.2-2.6-0.2c-5.7,0-8.5,2.9-8.5,8.5
			v18.4H110z" class="st0"></path>
		<path d="M139.4,34.4c0.3,5.3,3.3,8.8,7.9,8.8c3,0,5.7-1.5,6.3-3.9h9.6c-2.2,7.2-8,11.3-15.5,11.3
			c-11.8,0-17.7-6.5-17.7-19.2c0-10.9,6.2-17.9,17.1-17.9s16.6,7,16.6,21H139.4z M154.2,28.5c-0.1-5.2-3.6-7.8-7.2-7.8
			c-3.7,0-6.8,2.9-7.2,7.8H154.2z" class="st0"></path>
		<path d="M167.2,10.1V1.4h9.3v8.7H167.2z M167.2,49.6V14.3h9.3v35.3H167.2z" class="st0"></path>
		<path d="M200.8,26.4h8.7v10c0,7.5-4.3,14.1-14.3,14.1c-10.3,0-14.4-6.6-14.4-14.2V4.8h9.2v9.5h19.5v6.6H190v14.5
			c0,4.4,1.6,7,5.4,7c3.7,0,5.5-2.5,5.5-6.9V26.4z" class="st0"></path>
		<path d="M212.5,32c0-11.2,7-18.6,18.2-18.6c11.1,0,17.9,7.3,17.9,18.6c0,11.2-7,18.6-17.9,18.6
			C219.2,50.5,212.5,42.9,212.5,32z M239.2,32c0-7.2-2.9-10.7-8.5-10.7c-5.7,0-8.5,3.5-8.5,10.7c0,7.2,2.9,10.8,8.5,10.8
			C236.3,42.7,239.2,39.1,239.2,32z" class="st0"></path>
	</g>
</g>
</svg>
